<?xml version="1.0" encoding="utf-8"?>
<!-- Generator: Adobe Illustrator 16.0.0, SVG Export Plug-In . SVG Version: 6.00 Build 0)  -->
<!DOCTYPE svg PUBLIC "-//W3C//DTD SVG 1.1//EN" "http://www.w3.org/Graphics/SVG/1.1/DTD/svg11.dtd">
<svg version="1.1" id="Layer_1" xmlns="http://www.w3.org/2000/svg" xmlns:xlink="http://www.w3.org/1999/xlink" x="0px" y="0px"
	 width="200px" height="200px" viewBox="0 0 200 200" enable-background="new 0 0 200 200" xml:space="preserve">
<g>
	<g>
		<path fill="#808080" d="M122.03,77.955c-2.369-2.383-4.996-4.496-7.832-6.299c-7.511-4.81-16.243-7.365-25.162-7.365
			c-12.379-0.023-24.256,4.896-32.994,13.664l-42.393,42.426c-8.723,8.74-13.626,20.582-13.634,32.931
			C-0.001,179.08,20.875,199.983,46.644,200c12.36,0.043,24.226-4.853,32.961-13.598l34.993-34.994
			c0.637-0.631,0.991-1.49,0.986-2.385c-0.011-1.842-1.512-3.324-3.352-3.314h-1.334c-7.311,0.026-14.557-1.378-21.329-4.132
			c-1.248-0.514-2.682-0.224-3.632,0.733l-25.163,25.195c-7.813,7.812-20.481,7.812-28.295,0c-7.813-7.814-7.813-20.482,0-28.295
			l42.56-42.526c7.807-7.797,20.454-7.797,28.262,0c5.262,4.952,13.469,4.952,18.729,0c2.264-2.266,3.636-5.271,3.866-8.465
			C126.14,84.402,124.732,80.663,122.03,77.955z"/>
	</g>
</g>
<g>
	<g>
		<path fill="#808080" d="M186.318,13.667c-18.223-18.222-47.766-18.222-65.988,0L85.37,48.594c-0.96,0.964-1.237,2.416-0.7,3.666
			c0.531,1.254,1.771,2.059,3.133,2.033h1.233c7.303-0.013,14.537,1.402,21.296,4.166c1.248,0.514,2.682,0.224,3.633-0.733
			l25.095-25.062c7.813-7.813,20.481-7.813,28.295,0s7.813,20.481,0,28.295l-31.261,31.228l-0.268,0.3l-10.931,10.865
			c-7.808,7.798-20.454,7.798-28.262,0c-5.262-4.952-13.469-4.952-18.73,0c-2.278,2.282-3.651,5.313-3.866,8.532
			c-0.244,3.816,1.164,7.556,3.866,10.264c3.858,3.875,8.371,7.033,13.331,9.332c0.7,0.334,1.4,0.6,2.1,0.9
			c0.7,0.3,1.433,0.533,2.133,0.799c0.7,0.268,1.433,0.5,2.133,0.701l1.966,0.532c1.333,0.333,2.666,0.601,4.033,0.833
			c1.645,0.244,3.303,0.4,4.965,0.467h2.333h0.2l2-0.232c0.732-0.033,1.5-0.201,2.365-0.201h1.134l2.3-0.332l1.066-0.2l1.933-0.399
			h0.366c8.188-2.057,15.662-6.296,21.63-12.266l42.426-42.425C204.541,61.433,204.541,31.889,186.318,13.667z"/>
	</g>
</g>
</svg>
