<?xml version="1.0" encoding="utf-8"?>
<!-- Generator: Adobe Illustrator 16.0.0, SVG Export Plug-In . SVG Version: 6.00 Build 0)  -->
<!DOCTYPE svg PUBLIC "-//W3C//DTD SVG 1.1//EN" "http://www.w3.org/Graphics/SVG/1.1/DTD/svg11.dtd">
<svg version="1.1" id="Capa_1" xmlns="http://www.w3.org/2000/svg" xmlns:xlink="http://www.w3.org/1999/xlink" x="0px" y="0px"
	 width="25.73px" height="25.73px" viewBox="0 0 25.73 25.73" enable-background="new 0 0 25.73 25.73" xml:space="preserve">
<g>
	<g>
		<path fill="#808080" d="M24.408,0.597L0.706,13.026c-0.975,0.511-0.935,1.26,0.088,1.665l3.026,1.196
			c1.021,0.402,2.569,0.185,3.437-0.494L20.399,5.03c0.864-0.681,0.957-0.58,0.206,0.224L10.215,16.377
			c-0.753,0.803-0.527,1.783,0.495,2.184l0.354,0.139c1.022,0.396,2.698,1.062,3.717,1.478l3.356,1.366
			c1.02,0.415,1.854,0.759,1.854,0.767c0,0.006,0.006,0.023,0.011,0.024c0.005,0.002,0.246-0.863,0.534-1.926L25.654,1.6
			C25.942,0.537,25.383,0.087,24.408,0.597z"/>
		<path fill="#808080" d="M10.324,19.82l-2.322-0.95c-1.018-0.417-1.506,0.072-1.084,1.089c0.001,0,2.156,5.194,2.098,5.377
			c-0.062,0.184,2.066-3.082,2.066-3.082C11.684,21.332,11.342,20.237,10.324,19.82z"/>
	</g>
</g>
</svg>
