<?xml version="1.0" encoding="utf-8"?>
<!-- Generator: Adobe Illustrator 16.0.0, SVG Export Plug-In . SVG Version: 6.00 Build 0)  -->
<!DOCTYPE svg PUBLIC "-//W3C//DTD SVG 1.1//EN" "http://www.w3.org/Graphics/SVG/1.1/DTD/svg11.dtd">
<svg version="1.1" id="Capa_1" xmlns="http://www.w3.org/2000/svg" xmlns:xlink="http://www.w3.org/1999/xlink" x="0px" y="0px"
	 width="200px" height="200px" viewBox="0 0 200 200" enable-background="new 0 0 200 200" xml:space="preserve">
<g>
	<g>
		<path fill="#FFFFFF" d="M167.23,118.182c0-6.625-0.846-12.402-2.537-17.336s-4.018-9.021-6.977-12.263
			c-2.96-3.242-6.448-5.638-10.465-7.188c-4.018-1.55-8.422-2.326-13.213-2.326c-3.808,0-7.119,0.458-9.938,1.375
			c-2.817,0.916-5.249,2.114-7.293,3.594s-3.771,3.065-5.18,4.757s-2.606,3.242-3.595,4.651V81.184H79.282
			c0.141,2.396,0.211,7.047,0.211,13.954v26.216c0,0-0.071,15.574-0.211,46.723h28.751V119.45c0-1.269,0.071-2.501,0.213-3.7
			c0.141-1.197,0.422-2.29,0.845-3.275c1.128-2.538,2.854-4.934,5.179-7.189c2.326-2.254,5.533-3.383,9.621-3.383
			c5.215,0,8.949,1.797,11.205,5.391c2.255,3.594,3.383,8.352,3.383,14.271v46.512h28.752V118.182L167.23,118.182z M48.837,69.345
			c5.074,0,9.091-1.48,12.05-4.44c2.96-2.96,4.37-6.483,4.229-10.571c0-4.229-1.445-7.787-4.334-10.676
			c-2.889-2.89-6.801-4.334-11.733-4.334c-4.933,0-8.88,1.445-11.839,4.334c-2.96,2.889-4.44,6.448-4.44,10.676
			c0,4.087,1.41,7.611,4.229,10.571s6.695,4.44,11.628,4.44H48.837L48.837,69.345z M63.213,81.184H34.461v86.892h28.752V81.184z
			 M194.08,0c1.409,0,2.607,0.458,3.594,1.374c0.986,0.917,1.48,2.079,1.48,3.489v190.275c0,1.409-0.494,2.571-1.48,3.488
			S195.489,200,194.08,200H5.919c-1.409,0-2.607-0.457-3.594-1.374c-0.987-0.917-1.48-2.079-1.48-3.488V4.863
			c0-1.41,0.493-2.572,1.48-3.489C3.312,0.458,4.51,0,5.919,0H194.08L194.08,0z"/>
	</g>
</g>
</svg>
