<?xml version="1.0" encoding="utf-8"?>
<!-- Generator: Adobe Illustrator 16.0.0, SVG Export Plug-In . SVG Version: 6.00 Build 0)  -->
<!DOCTYPE svg PUBLIC "-//W3C//DTD SVG 1.1//EN" "http://www.w3.org/Graphics/SVG/1.1/DTD/svg11.dtd">
<svg version="1.1" id="Capa_1" xmlns="http://www.w3.org/2000/svg" xmlns:xlink="http://www.w3.org/1999/xlink" x="0px" y="0px"
	 width="200px" height="200px" viewBox="0 0 200 200" enable-background="new 0 0 200 200" xml:space="preserve">
<g id="Delete__x2F__Trash">
	<path fill="#808080" d="M47.02,186.426c0,0,2.979,13.574,18.313,13.574h69.334c15.333,0,18.312-13.574,18.312-13.574
		l13.688-133.092H33.333L47.02,186.426z M126.667,73.334c0-3.682,2.983-6.667,6.667-6.667c3.682,0,6.666,2.984,6.666,6.667
		l-6.666,100c0,3.682-2.986,6.666-6.667,6.666c-3.683,0-6.667-2.984-6.667-6.666L126.667,73.334z M93.333,73.334
		c0-3.682,2.985-6.667,6.667-6.667c3.682,0,6.666,2.984,6.666,6.667v100c0,3.682-2.984,6.666-6.666,6.666
		c-3.682,0-6.667-2.984-6.667-6.666V73.334z M66.667,66.667c3.683,0,6.667,2.984,6.667,6.667l6.667,100
		c0,3.684-2.985,6.667-6.667,6.667c-3.681,0-6.667-2.985-6.667-6.667L60,73.334C60,69.652,62.985,66.667,66.667,66.667z
		 M162.666,26.677h-29.332V13.334C133.334,3.22,130.062,0,120,0H80c-9.229,0-13.333,4.47-13.333,13.334v13.344H37.333
		c-5.896,0-10.667,4.475-10.667,10.005c0,5.53,4.771,10.005,10.667,10.005h125.333c5.896,0,10.667-4.475,10.667-10.005
		C173.333,31.153,168.562,26.677,162.666,26.677z M120,26.677H80V13.333h40V26.677L120,26.677z"/>
</g>
</svg>
