<?xml version="1.0" encoding="utf-8"?>
<!-- Generator: Adobe Illustrator 16.0.0, SVG Export Plug-In . SVG Version: 6.00 Build 0)  -->
<!DOCTYPE svg PUBLIC "-//W3C//DTD SVG 1.1//EN" "http://www.w3.org/Graphics/SVG/1.1/DTD/svg11.dtd">
<svg version="1.1" id="Capa_1" xmlns="http://www.w3.org/2000/svg" xmlns:xlink="http://www.w3.org/1999/xlink" x="0px" y="0px"
	 width="200px" height="200px" viewBox="0 0 200 200" enable-background="new 0 0 200 200" xml:space="preserve">
<g>
	<g>
		<path fill="#FFFFFF" d="M183.333,118.841V33.333c0-9.191-7.479-16.667-16.667-16.667h-20.833c-2.303,0-4.167,1.864-4.167,4.167
			v20.833c0,4.594-3.735,8.333-8.333,8.333c-4.598,0-8.333-3.739-8.333-8.333c0-3.483,2.238-6.621,5.566-7.805
			c1.66-0.594,2.767-2.165,2.767-3.926V4.167c0-2.303-1.863-4.167-4.166-4.167C126.863,0,125,1.864,125,4.167v12.5H62.5
			c-2.303,0-4.167,1.863-4.167,4.167v20.833C58.333,46.261,54.598,50,50,50s-8.333-3.739-8.333-8.333
			c0-3.483,2.238-6.621,5.566-7.805C48.894,33.269,50,31.698,50,29.936V4.167C50,1.864,48.136,0,45.833,0
			c-2.303,0-4.167,1.864-4.167,4.167v12.5h-25C7.479,16.667,0,24.142,0,33.333v133.333c0,9.192,7.479,16.667,16.667,16.667H118.84
			C127.255,193.506,139.967,200,154.167,200C179.436,200,200,179.439,200,154.167C200,139.966,193.506,127.254,183.333,118.841z
			 M108.333,154.167c0,4.337,0.646,8.52,1.777,12.5H16.667v-100h150v43.443c-3.98-1.132-8.163-1.776-12.5-1.776
			C128.898,108.333,108.333,128.895,108.333,154.167z M170.833,158.333h-12.5v12.5c0,2.304-1.863,4.167-4.167,4.167
			c-2.303,0-4.166-1.863-4.166-4.167v-12.5h-2.254H137.5c-2.303,0-4.167-1.863-4.167-4.167c0-2.303,1.864-4.166,4.167-4.166H150
			v-12.5c0-2.303,1.863-4.167,4.167-4.167c2.303,0,4.167,1.864,4.167,4.167v10.246V150h12.5c2.303,0,4.166,1.863,4.166,4.167
			C175,156.47,173.137,158.333,170.833,158.333z"/>
	</g>
</g>
</svg>
