<?xml version="1.0" encoding="utf-8"?>
<!-- Generator: Adobe Illustrator 16.0.0, SVG Export Plug-In . SVG Version: 6.00 Build 0)  -->
<!DOCTYPE svg PUBLIC "-//W3C//DTD SVG 1.1//EN" "http://www.w3.org/Graphics/SVG/1.1/DTD/svg11.dtd">
<svg version="1.1" id="Capa_1" xmlns="http://www.w3.org/2000/svg" xmlns:xlink="http://www.w3.org/1999/xlink" x="0px" y="0px"
	 width="200px" height="200px" viewBox="0 0 200 200" enable-background="new 0 0 200 200" xml:space="preserve">
<g>
	<g>
		<path fill="#FFFFFF" d="M123.77,144.48c-24.914-8.982-32.875-16.564-32.875-32.791c0-9.741,7.606-6.561,10.946-24.399
			c1.388-7.4,8.104-0.12,9.392-17.014c0-6.732-3.668-8.406-3.668-8.406s1.862-9.964,2.594-17.632C111.062,34.684,104.578,10,70,10
			S28.938,34.684,29.844,44.238c0.73,7.668,2.594,17.632,2.594,17.632s-3.668,1.674-3.668,8.406
			c1.286,16.894,8.004,9.614,9.386,17.014c3.344,17.838,10.95,14.658,10.95,24.399c0,16.227-7.96,23.809-32.876,32.791
			c-3,1.08-10.152,2.762-16.23,5.386V190h160c0,0,0-14.792,0-21.052C160,162.682,148.762,153.492,123.77,144.48z M170,90V60h-20v30
			h-30v20h30v30h20v-30h30V90H170z"/>
	</g>
</g>
</svg>
