<?xml version="1.0" encoding="utf-8"?>
<!-- Generator: Adobe Illustrator 16.0.0, SVG Export Plug-In . SVG Version: 6.00 Build 0)  -->
<!DOCTYPE svg PUBLIC "-//W3C//DTD SVG 1.1//EN" "http://www.w3.org/Graphics/SVG/1.1/DTD/svg11.dtd">
<svg version="1.1" xmlns="http://www.w3.org/2000/svg" xmlns:xlink="http://www.w3.org/1999/xlink" x="0px" y="0px"
	 width="92.833px" height="92.833px" viewBox="0 0 92.833 92.833" enable-background="new 0 0 92.833 92.833" xml:space="preserve">
<g id="Layer_2" display="none">
	<rect x="-7.083" y="-4.083" display="inline" fill="#03A9FC" width="109" height="104"/>
</g>
<g id="Capa_1">
	<g>
		<g>
			<path fill="#FFFFFF" d="M89.834,0H3C1.346,0,0,1.399,0,3.117v13.856c0,1.719,1.346,3.118,3,3.118h86.833c1.653,0,3-1.399,3-3.118
				V3.117C92.834,1.399,91.488,0,89.834,0z"/>
			<path fill="#FFFFFF" d="M89.834,36.371H3c-1.654,0-3,1.399-3,3.118v13.857c0,1.718,1.346,3.117,3,3.117h86.833
				c1.653,0,3-1.399,3-3.117V39.488C92.834,37.77,91.488,36.371,89.834,36.371z"/>
			<path fill="#FFFFFF" d="M89.834,72.742H3c-1.654,0-3,1.398-3,3.117v13.856c0,1.718,1.346,3.117,3,3.117h86.833
				c1.653,0,3-1.399,3-3.117V75.859C92.834,74.139,91.488,72.742,89.834,72.742z"/>
		</g>
	</g>
</g>
</svg>
