<?xml version="1.0" encoding="utf-8"?>
<!-- Generator: Adobe Illustrator 16.0.0, SVG Export Plug-In . SVG Version: 6.00 Build 0)  -->
<!DOCTYPE svg PUBLIC "-//W3C//DTD SVG 1.1//EN" "http://www.w3.org/Graphics/SVG/1.1/DTD/svg11.dtd">
<svg version="1.1" id="Capa_1" xmlns="http://www.w3.org/2000/svg" xmlns:xlink="http://www.w3.org/1999/xlink" x="0px" y="0px"
	 width="200px" height="200px" viewBox="0 0 200 200" enable-background="new 0 0 200 200" xml:space="preserve">
<path fill="#D3D3D3" d="M159.322,132.203c-9.055,0-17.566,3.525-23.97,9.93c-1.776,1.775-3.306,3.729-4.627,5.793l-58.577-35.557
	c1.549-3.877,2.427-8.095,2.427-12.519c0-4.423-0.878-8.641-2.424-12.519l58.59-35.285c6.021,9.451,16.566,15.75,28.58,15.75
	c18.691,0,33.898-15.207,33.898-33.898S178.014,0,159.322,0s-33.898,15.207-33.898,33.898c0,4.257,0.824,8.318,2.261,12.074
	L69.021,81.305c-6.061-9.234-16.495-15.353-28.343-15.353c-18.691,0-33.898,15.207-33.898,33.898s15.207,33.898,33.898,33.898
	c11.848,0,22.278-6.118,28.339-15.353L127.675,154c-1.458,3.816-2.251,7.895-2.251,12.102c0,9.055,3.525,17.57,9.929,23.97
	c6.403,6.403,14.915,9.929,23.97,9.929s17.566-3.525,23.969-9.929c6.404-6.399,9.93-14.915,9.93-23.97s-3.525-17.569-9.93-23.969
	C176.889,135.729,168.377,132.203,159.322,132.203z"/>
</svg>
