<?xml version="1.0" encoding="utf-8"?>
<!-- Generator: Adobe Illustrator 16.0.0, SVG Export Plug-In . SVG Version: 6.00 Build 0)  -->
<!DOCTYPE svg PUBLIC "-//W3C//DTD SVG 1.1//EN" "http://www.w3.org/Graphics/SVG/1.1/DTD/svg11.dtd">
<svg version="1.1" id="Capa_1" xmlns="http://www.w3.org/2000/svg" xmlns:xlink="http://www.w3.org/1999/xlink" x="0px" y="0px"
	 width="200px" height="200px" viewBox="0 0 200 200" enable-background="new 0 0 200 200" xml:space="preserve">
<path fill="#D3D3D3" d="M129.713,0H21.667v200h156.667V48.62L129.713,0z M80.417,139.27L63.75,152.604
	c-0.613,0.49-1.35,0.73-2.083,0.73c-0.856,0-1.713-0.33-2.36-0.978l-6.667-6.667c-1.303-1.303-1.303-3.41,0-4.713
	s3.41-1.303,4.713,0l4.557,4.557l14.336-11.47c1.434-1.15,3.537-0.917,4.684,0.521C82.086,136.023,81.854,138.12,80.417,139.27z
	 M80.417,102.604L63.75,115.937c-0.613,0.49-1.35,0.729-2.083,0.729c-0.856,0-1.713-0.329-2.36-0.977l-6.667-6.666
	c-1.303-1.303-1.303-3.41,0-4.713c1.303-1.304,3.41-1.304,4.713,0l4.557,4.557l14.336-11.471c1.434-1.15,3.537-0.917,4.684,0.52
	C82.086,99.356,81.854,101.453,80.417,102.604z M80.417,65.937L63.75,79.27C63.137,79.76,62.4,80,61.667,80
	c-0.856,0-1.713-0.33-2.36-0.977l-6.667-6.667c-1.303-1.303-1.303-3.41,0-4.713c1.303-1.304,3.41-1.304,4.713,0L61.91,72.2
	l14.336-11.47c1.434-1.15,3.537-0.917,4.684,0.52C82.086,62.69,81.854,64.787,80.417,65.937z M141.666,150H88.333
	c-1.84,0-3.333-1.49-3.333-3.334c0-1.843,1.493-3.332,3.333-3.332h53.333c1.841,0,3.334,1.489,3.334,3.332
	C145,148.51,143.507,150,141.666,150z M141.666,113.334H88.333c-1.84,0-3.333-1.49-3.333-3.334s1.493-3.334,3.333-3.334h53.333
	c1.841,0,3.334,1.49,3.334,3.334S143.507,113.334,141.666,113.334z M141.666,76.667H88.333c-1.84,0-3.333-1.49-3.333-3.333
	S86.493,70,88.333,70h53.333c1.841,0,3.334,1.49,3.334,3.333S143.507,76.667,141.666,76.667z M125,53.333V6.667l46.666,46.667H125z"
	/>
</svg>
