<?xml version="1.0" encoding="utf-8"?>
<!-- Generator: Adobe Illustrator 16.0.0, SVG Export Plug-In . SVG Version: 6.00 Build 0)  -->
<!DOCTYPE svg PUBLIC "-//W3C//DTD SVG 1.1//EN" "http://www.w3.org/Graphics/SVG/1.1/DTD/svg11.dtd">
<svg version="1.1" id="Capa_1" xmlns="http://www.w3.org/2000/svg" xmlns:xlink="http://www.w3.org/1999/xlink" x="0px" y="0px"
	 width="200px" height="200px" viewBox="0 0 200 200" enable-background="new 0 0 200 200" xml:space="preserve">
<g>
	<g>
		<g>
			<path fill="#D3D3D3" d="M28.327,0v200h143.347V0H28.327z M74.694,19.225c6.49,0,11.755,5.061,11.755,11.265
				s-5.225,11.265-11.755,11.265S62.939,36.694,62.939,30.49S68.163,19.225,74.694,19.225z M42,74.775
				c0.653-15.061,14.939-26.816,32.694-26.816c17.755,0,32.082,11.755,32.694,26.816c0,1.755-0.938,3.347-2.367,3.959
				c-8.898,4.122-19.347,6.367-30.327,6.367c-10.775,0-21.265-2.204-30.327-6.367C42.939,77.918,42,76.367,42,74.775z
				 M150.571,176.367H49.592c-2.367,0-4.123-1.918-4.123-4.122c0-2.368,1.918-4.122,4.123-4.122h100.775
				c2.367,0,4.123,1.918,4.123,4.122C154.693,174.612,152.775,176.367,150.571,176.367z M150.571,147.143H49.592
				c-2.367,0-4.123-1.918-4.123-4.122c0-2.367,1.918-4.122,4.123-4.122h100.775c2.367,0,4.123,1.918,4.123,4.122
				C154.693,145.225,152.775,147.143,150.571,147.143z M150.571,117.796H49.592c-2.367,0-4.123-1.919-4.123-4.122
				c0-2.367,1.918-4.123,4.123-4.123h100.775c2.367,0,4.123,1.918,4.123,4.123C154.693,115.877,152.775,117.796,150.571,117.796z"/>
		</g>
	</g>
</g>
</svg>
