<?xml version="1.0" encoding="utf-8"?>
<!-- Generator: Adobe Illustrator 16.0.0, SVG Export Plug-In . SVG Version: 6.00 Build 0)  -->
<!DOCTYPE svg PUBLIC "-//W3C//DTD SVG 1.1//EN" "http://www.w3.org/Graphics/SVG/1.1/DTD/svg11.dtd">
<svg version="1.1" id="Capa_1" xmlns="http://www.w3.org/2000/svg" xmlns:xlink="http://www.w3.org/1999/xlink" x="0px" y="0px"
	 width="200px" height="200px" viewBox="0 0 200 200" enable-background="new 0 0 200 200" xml:space="preserve">
<g>
	<path fill="#D3D3D3" d="M27.195,184.131c0,0-0.178,4.471,4.189,4.471c5.433,0,50.415-0.06,50.415-0.06l0.074-41.311
		c0,0-0.71-6.81,5.899-6.81h20.917c7.816,0,7.336,6.81,7.336,6.81l-0.089,41.177c0,0,42.649,0,49.349,0
		c5.544,0,5.292-5.566,5.292-5.566v-76.158l-69.548-61.865l-73.834,61.865V184.131z"/>
	<path fill="#D3D3D3" d="M0,100.926c0,0,6.27,11.554,19.941,0l81.702-69.12l76.604,68.69c15.825,11.414,21.754,0,21.754,0
		l-98.357-89.097L0,100.926z"/>
	<polygon fill="#D3D3D3" points="176.388,31.643 156.684,31.643 156.766,55.537 176.388,72.184 	"/>
</g>
</svg>
