<?xml version="1.0" encoding="iso-8859-1"?>
<!-- Generator: Adobe Illustrator 19.0.0, SVG Export Plug-In . SVG Version: 6.00 Build 0)  -->
<svg version="1.1" id="Layer_1" xmlns="http://www.w3.org/2000/svg" xmlns:xlink="http://www.w3.org/1999/xlink" x="0px" y="0px"
	 viewBox="0 0 512 512" style="enable-background:new 0 0 512 512;" xml:space="preserve">
<g>
	<g>
		<path d="M503.604,245.573l-57.092-12.411C436.06,145.544,366.456,75.94,278.839,65.488L266.427,8.396C265.354,3.5,261.021,0,256,0
			s-9.354,3.5-10.427,8.396l-12.411,57.092C145.544,75.94,75.94,145.544,65.488,233.161L8.396,245.573C3.5,246.646,0,250.979,0,256
			s3.5,9.354,8.396,10.427l57.092,12.411c10.452,87.617,80.056,157.221,167.673,167.673l12.411,57.092
			C246.646,508.5,250.979,512,256,512s9.354-3.5,10.427-8.396l12.411-57.092c87.617-10.452,157.221-80.056,167.673-167.673
			l57.092-12.411C508.5,265.354,512,261.021,512,256S508.5,246.646,503.604,245.573z M110.359,288.592l67.947,14.771L151,346.271
			c-2.688,4.219-2.073,9.74,1.458,13.271c3.542,3.542,9.073,4.115,13.271,1.458l42.908-27.306l14.771,67.947
			C167.211,389.066,122.934,344.789,110.359,288.592z M208.637,178.306L165.729,151c-4.198-2.667-9.729-2.094-13.271,1.458
			c-3.531,3.531-4.146,9.052-1.458,13.271l27.306,42.908l-67.947,14.771c12.574-56.197,56.852-100.474,113.048-113.048
			L208.637,178.306z M288.592,401.641l14.771-67.947L346.271,361c1.76,1.115,3.75,1.667,5.729,1.667c2.75,0,5.479-1.063,7.542-3.125
			c3.531-3.531,4.146-9.052,1.458-13.271l-27.306-42.908l67.947-14.771C389.066,344.789,344.789,389.066,288.592,401.641z
			 M333.694,208.637L361,165.729c2.688-4.219,2.073-9.74-1.458-13.271c-3.563-3.552-9.063-4.125-13.271-1.458l-42.908,27.306
			l-14.771-67.947c56.197,12.574,100.474,56.852,113.048,113.048L333.694,208.637z"/>
	</g>
</g>
<g>
</g>
<g>
</g>
<g>
</g>
<g>
</g>
<g>
</g>
<g>
</g>
<g>
</g>
<g>
</g>
<g>
</g>
<g>
</g>
<g>
</g>
<g>
</g>
<g>
</g>
<g>
</g>
<g>
</g>
</svg>
