<?xml version="1.0" encoding="utf-8"?>
<!-- Generator: Adobe Illustrator 16.0.0, SVG Export Plug-In . SVG Version: 6.00 Build 0)  -->
<!DOCTYPE svg PUBLIC "-//W3C//DTD SVG 1.1//EN" "http://www.w3.org/Graphics/SVG/1.1/DTD/svg11.dtd">
<svg version="1.1" id="Capa_1" xmlns="http://www.w3.org/2000/svg" xmlns:xlink="http://www.w3.org/1999/xlink" x="0px" y="0px"
	 width="200px" height="200px" viewBox="0 0 200 200" enable-background="new 0 0 200 200" xml:space="preserve">
<g>
	<path fill="#808080" d="M100.014,0c-37.52,0-67.94,30.217-67.94,67.492c0,19.069,18.706,53.232,18.706,53.232L97.51,200
		l48.758-78.35c0,0,21.658-32.596,21.658-54.158C167.932,30.217,137.517,0,100.014,0z M99.696,104.665
		c-21.488,0-38.894-17.405-38.894-38.917c0-21.483,17.4-38.876,38.894-38.876c21.478,0,38.899,17.394,38.899,38.876
		C138.596,87.26,121.174,104.665,99.696,104.665z"/>
</g>
</svg>
